# xmcd
#
# Track frame offsets: 
#        150
#        16028
#        29194
#        47599
#        66561
#        90846
#        106212
#        127480
#        142690
#        160866
#        179973
#        198899
#        213666
#
# Disc length: 2940 seconds
#
# Revision: 0
# Processed by: cddbd v1.5.2PL0 Copyright (c) Steve Scherf et al.
# Submitted via: ExactAudioCopy v1.3
#
DISCID=bc0b7a0d
DTITLE=Barrelhouse Chuck - Got My Eyes On You
DYEAR=2006
DGENRE=Blues
TTITLE0=Floyd's Blues
TTITLE1=Call My Job
TTITLE2=Got My Eyes On You
TTITLE3=Mother Earth
TTITLE4=Cleo's Mood
TTITLE5=It's You Baby
TTITLE6=School Days
TTITLE7=The Bright Sounds Of Big Moose
TTITLE8=Just To Be With You
TTITLE9=Big Town Playboy
TTITLE10=Red River Rumba
TTITLE11=Mama You Don't Mean Me No Good
TTITLE12=Iza Mae
EXTD=
EXTT0=
EXTT1=
EXTT2=
EXTT3=
EXTT4=
EXTT5=
EXTT6=
EXTT7=
EXTT8=
EXTT9=
EXTT10=
EXTT11=
EXTT12=
PLAYORDER=
